<svg width="126" height="126" viewBox="0 0 126 126" fill="none" xmlns="http://www.w3.org/2000/svg"><path d="M124.656 50.613h-5.07v-.261H62.94v25.176h35.57c-5.189 14.656-19.133 25.176-35.57 25.176-20.855 0-37.764-16.909-37.764-37.764 0-20.855 16.909-37.764 37.764-37.764 9.627 0 18.385 3.632 25.053 9.564l17.803-17.803C94.555 6.461 79.518 0 62.94 0 28.181 0 0 28.181 0 62.94s28.181 62.94 62.94 62.94 62.94-28.181 62.94-62.94c0-4.22-.434-8.34-1.224-12.327Z" fill="#FFC107"/><path d="M7.257 33.645 27.936 48.81c5.595-13.853 19.146-23.634 35.004-23.634 9.627 0 18.385 3.632 25.053 9.564l17.803-17.803C94.555 6.461 79.518 0 62.94 0 38.765 0 17.8 13.649 7.257 33.645Z" fill="#FF3D00"/><path d="M62.94 125.88c16.257 0 31.03-6.222 42.198-16.339l-19.48-16.484c-6.32 4.786-14.174 7.647-22.718 7.647-16.37 0-30.271-10.438-35.508-25.006L6.907 91.512c10.417 20.383 31.571 34.368 56.033 34.368Z" fill="#4CAF50"/><path d="M124.656 50.613h-5.07v-.261H62.94v25.176h35.57c-2.492 7.04-7.02 13.11-12.861 17.532.003-.003.006-.003.01-.006l19.479 16.484C103.76 110.79 125.88 94.41 125.88 62.94c0-4.22-.434-8.34-1.224-12.327Z" fill="#1976D2"/></svg>