<svg width="31" height="35" viewBox="0 0 31 35" fill="none" xmlns="http://www.w3.org/2000/svg"><path d="M23.431 16.222c-.15-.072-.304-.142-.459-.209-.27-4.977-2.99-7.827-7.557-7.856h-.062c-2.732 0-5.004 1.166-6.402 3.287l2.512 1.723c1.044-1.585 2.684-1.922 3.891-1.922h.042c1.504.01 2.639.447 3.373 1.3.534.62.892 1.478 1.069 2.56-1.333-.226-2.775-.296-4.317-.207-4.342.25-7.134 2.782-6.946 6.301.095 1.785.984 3.32 2.504 4.324 1.284.848 2.939 1.263 4.659 1.169 2.27-.125 4.052-.991 5.295-2.576.944-1.203 1.54-2.762 1.804-4.726 1.083.653 1.885 1.512 2.328 2.546.753 1.756.797 4.642-1.558 6.995-2.063 2.061-4.544 2.953-8.292 2.98-4.158-.03-7.303-1.364-9.347-3.963C4.053 25.515 3.064 22 3.027 17.5c.037-4.5 1.026-8.015 2.94-10.448 2.045-2.6 5.19-3.933 9.348-3.964 4.188.031 7.387 1.371 9.51 3.983 1.041 1.28 1.826 2.891 2.343 4.769l2.944-.785c-.627-2.312-1.614-4.304-2.957-5.956C24.434 1.751 20.453.036 15.325 0h-.02C10.187.035 6.25 1.758 3.607 5.119 1.255 8.109.041 12.27 0 17.488v.024c.04 5.217 1.255 9.379 3.607 12.37 2.644 3.36 6.58 5.083 11.698 5.118h.02c4.55-.032 7.758-1.223 10.4-3.863 3.456-3.453 3.352-7.782 2.213-10.44-.817-1.905-2.376-3.453-4.507-4.475Zm-7.856 7.386c-1.903.107-3.88-.747-3.978-2.577-.072-1.356.966-2.87 4.095-3.05.358-.021.71-.031 1.055-.031 1.137 0 2.2.11 3.167.322-.36 4.503-2.476 5.234-4.339 5.336Z" fill="#fff" /></svg>